<svg width="61" height="61" viewBox="0 0 61 61" fill="none" xmlns="http://www.w3.org/2000/svg">
<rect x="61" y="61" width="61" height="61" rx="8" transform="rotate(180 61 61)" fill="#73C9A5"/>
<path d="M10.0001 31.5221C10.0035 31.735 10.0554 31.9443 10.1519 32.1345C10.2485 32.3248 10.3871 32.491 10.5576 32.6207C10.5604 32.6225 10.5632 32.6244 10.566 32.6262L17.5735 39.5655C17.705 39.7011 17.8625 39.8094 18.0368 39.884C18.2111 39.9586 18.3987 39.998 18.5885 39.9999C18.7784 40.0018 18.9667 39.9662 19.1425 39.8951C19.3183 39.8241 19.478 39.719 19.6123 39.586C19.7465 39.4531 19.8527 39.2949 19.9244 39.1208C19.9962 38.9468 20.0322 38.7602 20.0303 38.5722C20.0283 38.3842 19.9885 38.1985 19.9132 38.0259C19.8379 37.8533 19.7285 37.6973 19.5915 37.5671L14.892 32.9133L48.5525 32.9133C48.7416 32.9159 48.9294 32.8813 49.1049 32.8115C49.2804 32.7416 49.4401 32.638 49.5748 32.5065C49.7095 32.375 49.8164 32.2183 49.8894 32.0455C49.9624 31.8727 50 31.6873 50 31.5C50 31.3127 49.9624 31.1273 49.8894 30.9545C49.8164 30.7817 49.7095 30.625 49.5748 30.4935C49.4401 30.362 49.2804 30.2584 49.1049 30.1885C48.9294 30.1187 48.7416 30.0841 48.5525 30.0867L14.892 30.0867L19.5915 25.4329C19.7285 25.3027 19.8379 25.1467 19.9132 24.9741C19.9885 24.8015 20.0283 24.6158 20.0303 24.4278C20.0322 24.2398 19.9962 24.0532 19.9244 23.8792C19.8527 23.7051 19.7465 23.5469 19.6123 23.414C19.478 23.281 19.3183 23.1759 19.1425 23.1049C18.9667 23.0338 18.7784 22.9982 18.5885 23.0001C18.3987 23.002 18.2111 23.0414 18.0368 23.116C17.8625 23.1906 17.705 23.2989 17.5735 23.4345L10.5576 30.3821C10.3815 30.5161 10.2395 30.6889 10.1427 30.8868C10.0459 31.0847 9.9971 31.3022 10.0001 31.5221Z" fill="white"/>
</svg>
