<svg width="231" height="59" viewBox="0 0 231 59" fill="none" xmlns="http://www.w3.org/2000/svg">
<path d="M28.14 48.74C25.34 48.98 22.58 48.86 19.86 48.38C17.14 47.9 14.58 47.02 12.18 45.74C9.78 44.42 7.68 42.8 5.88 40.88C4.08 38.92 2.68 36.52 1.68 33.68C0.72 30.8 0.3 27.64 0.42 24.2C0.54 21.08 1.34 18.06 2.82 15.14C4.34 12.22 6.26 9.74 8.58 7.7C10.9 5.66 13.54 4.04 16.5 2.84C19.46 1.6 22.44 0.979996 25.44 0.979996C28.72 0.979996 31.68 1.68 34.32 3.08C37 4.48 39.02 6.46 40.38 9.02C41.78 11.58 42.28 14.42 41.88 17.54C41.72 18.9 41.28 20.26 40.56 21.62C39.88 22.94 38.98 24.12 37.86 25.16C36.78 26.2 35.6 27.04 34.32 27.68C32.8 28.44 31.2 28.9 29.52 29.06C27.84 29.18 26.18 28.94 24.54 28.34C22.94 27.74 21.58 26.8 20.46 25.52C19.58 24.48 18.92 23.16 18.48 21.56C18.04 19.92 18.02 18.18 18.42 16.34C18.86 14.46 19.8 12.92 21.24 11.72C21.64 13.08 22.24 14.24 23.04 15.2C23.84 16.16 24.72 16.84 25.68 17.24C26.64 17.64 27.66 17.9 28.74 18.02C29.86 18.1 30.92 17.96 31.92 17.6C33.48 17.12 34.62 16.36 35.34 15.32C36.1 14.24 36.46 13.06 36.42 11.78C36.38 9.5 35.32 7.6 33.24 6.08C31.16 4.52 28.54 3.94 25.38 4.34C22.66 4.7 20.26 5.98 18.18 8.18C16.14 10.38 14.64 13.02 13.68 16.1C12.72 19.14 12.26 22.34 12.3 25.7C12.38 29.38 13 32.72 14.16 35.72C15.32 38.68 17.1 41.08 19.5 42.92C21.9 44.76 24.76 45.68 28.08 45.68C29.92 45.68 31.6 45.26 33.12 44.42C34.64 43.58 35.86 42.5 36.78 41.18C37.74 39.82 38.46 38.34 38.94 36.74C39.42 35.1 39.66 33.44 39.66 31.76C40.94 31.24 42.02 31.76 42.9 33.32C44.02 35.28 44.14 37.52 43.26 40.04C41.9 43.84 38.62 46.46 33.42 47.9C31.82 48.3 30.06 48.58 28.14 48.74ZM66.1983 43.04C66.2383 40.4 64.9583 36.56 62.3583 31.52C60.5583 28.04 58.7183 25.34 56.8383 23.42C54.9983 21.5 53.5183 21.02 52.3983 21.98C51.4783 22.78 51.2383 24.06 51.6783 25.82C52.1583 27.58 53.2383 28.94 54.9183 29.9C54.7583 30.98 54.3183 31.88 53.5983 32.6C52.9183 33.32 52.0983 33.8 51.1383 34.04C49.2183 34.48 47.6183 34.04 46.3383 32.72C45.0583 31.36 44.5383 29.66 44.7783 27.62C44.9383 26.14 45.5383 24.76 46.5783 23.48C47.6583 22.2 49.0383 21.1 50.7183 20.18C53.3983 18.7 56.0183 18 58.5783 18.08C61.1783 18.16 63.6383 18.96 65.9583 20.48C68.3183 21.96 70.1783 24 71.5383 26.6C72.1383 27.76 72.5783 29.02 72.8583 30.38C73.1783 31.74 73.2783 33.1 73.1583 34.46C73.0783 35.82 72.7783 37.1 72.2583 38.3C71.7783 39.46 71.0183 40.48 69.9783 41.36C68.9383 42.2 67.6783 42.76 66.1983 43.04ZM47.1183 39.62C46.0783 37.62 45.4583 35.48 45.2583 33.2C46.9783 35.36 49.0183 36.18 51.3783 35.66C53.0983 35.26 54.4183 34.26 55.3383 32.66C55.6583 33.34 55.9983 33.98 56.3583 34.58C57.6783 37.1 59.0583 39.12 60.4983 40.64C61.9383 42.16 63.5183 43.22 65.2383 43.82C66.9983 44.42 68.9183 44.3 70.9983 43.46C73.0783 42.58 75.2583 40.98 77.5383 38.66C81.3383 34.86 84.5183 30.52 87.0783 25.64C87.1983 25.4 87.4383 24.92 87.7983 24.2C88.1583 23.48 88.4183 22.96 88.5783 22.64C88.7783 22.28 89.0583 21.84 89.4183 21.32C89.7783 20.76 90.1583 20.3 90.5583 19.94C90.9583 19.58 91.4183 19.24 91.9383 18.92C92.6583 18.48 93.4783 18.2 94.3983 18.08C95.3183 17.92 96.2583 17.98 97.2183 18.26C98.2183 18.5 99.1183 18.96 99.9183 19.64C100.718 20.28 101.378 21.28 101.898 22.64C102.418 23.96 102.678 25.54 102.678 27.38C102.678 27.62 102.678 28.08 102.678 28.76C102.678 29.4 102.678 29.9 102.678 30.26C103.438 27.38 104.278 25 105.198 23.12C106.158 21.2 107.358 19.8 108.798 18.92C109.558 18.48 110.398 18.2 111.318 18.08C112.238 17.92 113.178 17.98 114.138 18.26C115.098 18.5 115.978 18.96 116.778 19.64C117.618 20.28 118.298 21.28 118.818 22.64C119.338 23.96 119.598 25.54 119.598 27.38C119.598 27.5 119.578 28.2 119.538 29.48C119.538 30.76 119.538 31.8 119.538 32.6C119.578 33.36 119.598 34.48 119.598 35.96C119.638 37.4 119.678 38.64 119.718 39.68C119.798 40.72 119.898 41.82 120.018 42.98C120.138 44.14 120.278 45.16 120.438 46.04C120.638 46.88 120.878 47.54 121.158 48.02H108.018C108.538 47.3 108.958 45.08 109.278 41.36C109.638 37.6 109.678 33.94 109.398 30.38C109.158 26.78 108.518 24.94 107.478 24.86C106.598 24.82 105.818 25.56 105.138 27.08C104.458 28.6 103.798 30.66 103.158 33.26C102.998 33.9 102.858 34.58 102.738 35.3C102.858 42.02 103.358 46.26 104.238 48.02H91.1583C91.6383 47.3 92.0583 45.08 92.4183 41.36C92.7783 37.6 92.8183 33.94 92.5383 30.38C92.2583 26.78 91.5983 24.94 90.5583 24.86C89.8783 24.82 89.2183 25.36 88.5783 26.48C88.3783 26.88 88.1783 27.26 87.9783 27.62C87.4183 28.94 86.8583 30.82 86.2983 33.26C86.2183 33.54 86.1383 33.86 86.0583 34.22C86.0983 40.9 86.6183 45.5 87.6183 48.02H74.0583C74.5783 46.82 74.9783 45.24 75.2583 43.28C73.4183 44.56 71.4783 45.6 69.4383 46.4C67.4383 47.2 65.3583 47.72 63.1983 47.96C61.0383 48.2 58.9783 48.12 57.0183 47.72C55.0983 47.28 53.2583 46.38 51.4983 45.02C49.7783 43.66 48.3183 41.86 47.1183 39.62ZM75.7983 37.94C75.9183 34.5 75.7983 31.12 75.4383 27.8C75.0783 24.44 74.6183 22.22 74.0583 21.14C78.2183 20.74 82.2183 19.86 86.0583 18.5V23.84C82.6183 30.36 79.1983 35.06 75.7983 37.94ZM136.279 59H122.599C123.639 55.52 124.159 48.84 124.159 38.96C124.199 29.08 123.679 22.26 122.599 18.5H136.279C135.799 19.94 135.419 22.06 135.139 24.86C136.739 21.18 138.679 19.04 140.959 18.44C143.119 17.88 145.139 18.28 147.019 19.64C148.899 20.96 150.159 22.94 150.799 25.58C151.479 28.22 151.599 30.86 151.159 33.5C150.719 36.14 149.939 38.44 148.819 40.4C147.299 43.08 145.339 45.18 142.939 46.7C140.539 48.18 137.819 48.72 134.779 48.32C135.099 53.36 135.599 56.92 136.279 59ZM134.719 47C136.799 45.16 138.459 42.46 139.699 38.9C140.979 35.3 141.499 32.08 141.259 29.24C141.019 26.4 140.019 25.02 138.259 25.1C137.419 25.14 136.679 25.72 136.039 26.84C135.399 27.92 134.939 29.36 134.659 31.16C134.379 36.44 134.399 41.72 134.719 47Z" fill="#73C9A5"/>
<path d="M151.999 18.5C154.159 18.1 156.439 17.44 158.839 16.52C161.279 15.56 163.099 14.6 164.299 13.64V18.5H169.579V20.54C168.979 20.54 168.079 20.54 166.879 20.54C165.679 20.54 164.799 20.54 164.239 20.54C164.279 31.46 164.319 37.98 164.359 40.1C164.359 42.22 164.539 43.82 164.899 44.9C165.299 45.98 165.939 46.44 166.819 46.28C168.019 45.88 168.479 44.54 168.199 42.26C167.919 39.94 167.119 38 165.799 36.44C168.119 35.28 169.879 35.56 171.079 37.28C172.199 38.88 172.379 40.8 171.619 43.04C170.739 45.72 168.839 47.44 165.919 48.2C164.999 48.44 164.019 48.58 162.979 48.62C156.779 48.62 153.679 45.18 153.679 38.3C153.679 37.22 153.679 35.78 153.679 33.98C153.719 32.14 153.719 30.84 153.679 30.08C153.679 29.32 153.659 28.3 153.619 27.02C153.619 25.74 153.579 24.8 153.499 24.2C153.459 23.6 153.379 22.9 153.259 22.1C153.139 21.3 152.979 20.64 152.779 20.12C152.579 19.56 152.319 19.02 151.999 18.5ZM200.466 37.94C200.346 38.94 200.086 39.9 199.686 40.82C199.326 41.7 198.866 42.52 198.306 43.28C197.746 44.04 197.086 44.74 196.326 45.38C195.606 46.02 194.786 46.58 193.866 47.06C192.986 47.54 192.046 47.92 191.046 48.2C187.046 49.28 183.306 48.76 179.826 46.64C177.826 45.44 176.226 43.88 175.026 41.96C173.866 40 173.146 37.98 172.866 35.9C172.626 33.82 172.766 31.72 173.286 29.6C173.806 27.44 174.646 25.52 175.806 23.84C177.006 22.12 178.586 20.74 180.546 19.7C182.506 18.62 184.646 18.08 186.966 18.08C190.566 18.08 193.666 19.36 196.266 21.92C198.866 24.48 200.326 27.66 200.646 31.46H180.846C181.846 33.42 183.246 35.08 185.046 36.44C186.886 37.76 189.126 38.64 191.766 39.08C194.406 39.52 197.306 39.14 200.466 37.94ZM180.126 21.92C179.366 22.08 178.946 22.86 178.866 24.26C178.786 25.62 179.146 27.34 179.946 29.42H188.046C187.286 27.22 186.066 25.36 184.386 23.84C182.706 22.32 181.286 21.68 180.126 21.92ZM230.114 37.94C229.994 38.94 229.734 39.9 229.334 40.82C228.974 41.7 228.514 42.52 227.954 43.28C227.394 44.04 226.734 44.74 225.974 45.38C225.254 46.02 224.434 46.58 223.514 47.06C222.634 47.54 221.694 47.92 220.694 48.2C216.694 49.28 212.954 48.76 209.474 46.64C207.474 45.44 205.874 43.88 204.674 41.96C203.514 40 202.794 37.98 202.514 35.9C202.274 33.82 202.414 31.72 202.934 29.6C203.454 27.44 204.294 25.52 205.454 23.84C206.654 22.12 208.234 20.74 210.194 19.7C212.154 18.62 214.294 18.08 216.614 18.08C220.214 18.08 223.314 19.36 225.914 21.92C228.514 24.48 229.974 27.66 230.294 31.46H210.494C211.494 33.42 212.894 35.08 214.694 36.44C216.534 37.76 218.774 38.64 221.414 39.08C224.054 39.52 226.954 39.14 230.114 37.94ZM209.774 21.92C209.014 22.08 208.594 22.86 208.514 24.26C208.434 25.62 208.794 27.34 209.594 29.42H217.694C216.934 27.22 215.714 25.36 214.034 23.84C212.354 22.32 210.934 21.68 209.774 21.92Z" fill="#585858"/>
</svg>
