<svg width="932" height="743" viewBox="0 0 932 743" fill="none" xmlns="http://www.w3.org/2000/svg">
<path d="M932 128.179C932 252.719 694.417 451 553.732 451C413.047 451 299 350.04 299 225.5C299 100.96 413.047 0 553.732 0C694.417 0 932 3.63873 932 128.179Z" fill="url(#paint0_linear_37_51)" fill-opacity="0.22"/>
<g clip-path="url(#clip0_37_51)">
<path d="M345.402 668.518C323.943 668.518 306.486 651.071 306.486 629.626V125.375C306.486 103.925 323.943 86.4822 345.402 86.4822H546.598C568.057 86.4822 585.514 103.929 585.514 125.375V629.626C585.514 651.071 568.057 668.518 546.598 668.518H345.402Z" fill="white"/>
<path d="M546.598 670.138H345.402C323.048 670.138 304.865 651.966 304.865 629.625V125.375C304.865 103.034 323.048 84.8616 345.402 84.8616H546.598C568.952 84.8616 587.135 103.034 587.135 125.375V629.625C587.135 651.963 568.949 670.138 546.598 670.138ZM345.402 88.1026C324.838 88.1026 308.108 104.823 308.108 125.375V629.625C308.108 650.177 324.838 666.897 345.402 666.897H546.598C567.162 666.897 583.892 650.177 583.892 629.625V125.375C583.892 104.823 567.162 88.1026 546.598 88.1026H345.402Z" fill="#1D2445"/>
<path d="M546.598 92.9642C564.48 92.9642 579.028 107.503 579.028 125.375V629.625C579.028 647.497 564.48 662.036 546.598 662.036H345.402C327.52 662.036 312.972 647.497 312.972 629.625V125.375C312.972 107.503 327.52 92.9642 345.402 92.9642H546.598ZM546.598 80H345.402C320.327 80 300 100.315 300 125.375V629.625C300 654.685 320.327 675 345.402 675H546.598C571.673 675 592 654.685 592 629.625V125.375C592 100.315 571.67 80 546.598 80Z" fill="#1D2445"/>
<path d="M384.552 114.063H500.632C507.795 114.063 513.604 108.259 513.604 101.099V86.8127H371.58V101.099C371.58 108.262 377.388 114.063 384.552 114.063V114.063Z" fill="#1D2445"/>
</g>
<path d="M157.308 575.014C132.341 581.625 108.195 561.937 109.642 536.15L122.613 305.055C124.353 274.061 160.508 258.117 184.567 277.733L395.345 449.588C419.404 469.204 411.066 507.828 381.058 515.773L157.308 575.014Z" fill="url(#paint1_linear_37_51)"/>
<defs>
<linearGradient id="paint0_linear_37_51" x1="615.5" y1="0" x2="615.5" y2="451" gradientUnits="userSpaceOnUse">
<stop stop-color="#73C9A5"/>
<stop offset="1" stop-color="#00F48D" stop-opacity="0.9"/>
</linearGradient>
<linearGradient id="paint1_linear_37_51" x1="276" y1="575" x2="117" y2="188.5" gradientUnits="userSpaceOnUse">
<stop stop-color="#FBEAE6"/>
<stop offset="1" stop-color="#F8F4F3" stop-opacity="0.9"/>
</linearGradient>
<clipPath id="clip0_37_51">
<rect width="292" height="595" fill="white" transform="translate(300 80)"/>
</clipPath>
</defs>
</svg>
